<svg xmlns="http://www.w3.org/2000/svg" width="18" height="18" viewBox="0 0 18 18"><g><g opacity=".3"><path fill="#fff" d="M18.001 3.374v11.252c0 .93-.33 1.725-.99 2.385a3.25 3.25 0 0 1-2.385.99H3.374c-.93 0-1.725-.33-2.385-.99a3.252 3.252 0 0 1-.99-2.385V3.374c0-.93.33-1.725.99-2.385.66-.66 1.455-.99 2.385-.99h11.252c.93 0 1.725.33 2.385.99.66.66.99 1.455.99 2.385zm-3 9.107a.545.545 0 0 0-.023-.188c-.023-.062-.174-.177-.451-.345a21.024 21.024 0 0 0-1.038-.58l-.62-.34a4.4 4.4 0 0 1-.224-.153 1.805 1.805 0 0 0-.292-.176.597.597 0 0 0-.247-.058c-.14 0-.324.127-.55.38-.227.255-.45.51-.669.769-.219.257-.39.386-.515.386a.577.577 0 0 1-.194-.04 1.781 1.781 0 0 1-.38-.188 4.416 4.416 0 0 1-.165-.1 8.947 8.947 0 0 1-1.999-1.483 8.945 8.945 0 0 1-1.482-1.998 4.736 4.736 0 0 1-.211-.363 1.808 1.808 0 0 1-.076-.182.573.573 0 0 1-.041-.193c0-.102.08-.233.24-.393.16-.16.336-.31.527-.451.192-.14.368-.295.528-.463.16-.168.24-.31.24-.428 0-.078-.02-.16-.058-.246a1.802 1.802 0 0 0-.176-.293 4.158 4.158 0 0 1-.153-.223 24.406 24.406 0 0 0-.469-.867c-.101-.18-.205-.365-.31-.557a4.77 4.77 0 0 0-.293-.475c-.09-.125-.154-.195-.194-.21a.544.544 0 0 0-.187-.024c-.375 0-.77.086-1.184.258-.36.164-.672.533-.937 1.107-.266.575-.399 1.084-.399 1.53 0 .125.01.258.03.398.019.141.038.26.058.358a6.49 6.49 0 0 0 .223.732 43.532 43.532 0 0 1 .275.739c.469 1.28 1.315 2.533 2.537 3.756 1.223 1.223 2.475 2.068 3.757 2.537a44.578 44.578 0 0 1 .738.275 6.449 6.449 0 0 0 .733.223c.097.02.216.04.357.059.14.02.273.03.398.03.446 0 .956-.134 1.53-.4.574-.265.944-.578 1.107-.937a3.08 3.08 0 0 0 .26-1.183z"/></g></g></svg>