<svg xmlns="http://www.w3.org/2000/svg" width="18" height="18" viewBox="0 0 18 18"><g><g opacity=".3"><path fill="#fff" d="M18 3v12c0 1.65-1.35 3-3 3H3c-1.65 0-3-1.35-3-3V3c0-1.65 1.35-3 3-3h12c1.65 0 3 1.35 3 3zM4.04 4.6L9 10.385 13.96 4.6a1.106 1.106 0 0 0-.46-.1h-9c-.16 0-.317.035-.46.1zm-.626 8.066l3.262-3.263-3.299-3.848a1.202 1.202 0 0 0-.002.07v6.75c0 .1.013.197.039.29zm10.377.795l-3.202-3.201L9 12.114 7.41 10.26l-3.2 3.201c.093.026.19.039.29.039h9c.1 0 .197-.013.29-.039zm.834-7.836c0-.024-.001-.047-.003-.07l-3.298 3.848 3.262 3.263c.026-.094.039-.192.039-.291z"/></g></g></svg>