<svg xmlns="http://www.w3.org/2000/svg" width="13" height="12" viewBox="0 0 13 12"><g><g><path fill="#fff" d="M12.681 11.706a1.152 1.152 0 0 1-1.536 0L8.32 9.099c-.015-.014-.026-.03-.04-.045a5.64 5.64 0 0 1-2.937.813C2.393 9.867 0 7.657 0 4.933S2.393 0 5.344 0c2.952 0 5.345 2.209 5.345 4.933a4.643 4.643 0 0 1-.88 2.711c.015.013.033.023.048.037l2.824 2.607a.95.95 0 0 1 0 1.418zM8.836 4.933c0-1.78-1.563-3.223-3.492-3.223-1.928 0-3.492 1.443-3.492 3.223 0 1.78 1.564 3.223 3.492 3.223 1.929 0 3.492-1.443 3.492-3.223z"/></g></g></svg>