<svg xmlns="http://www.w3.org/2000/svg" width="16" height="15" viewBox="0 0 16 15"><g><g><path fill="red" d="M8.802 11.404c.02.439-.372.823-.802.823-.448 0-.823-.384-.823-.843 0-.459.375-.843.823-.843.45 0 .822.38.802.863zM13.137 15H2.849a2.802 2.802 0 0 1-2.457-1.447 2.967 2.967 0 0 1-.01-2.931L5.54 1.464C6.05.55 6.97 0 8.003 0s1.954.546 2.463 1.467l5.15 9.148c.514.91.51 2-.006 2.914-.52.921-1.444 1.471-2.473 1.471zm1.365-3.72L9.348 2.124a1.527 1.527 0 0 0-1.345-.803 1.52 1.52 0 0 0-1.345.8L1.5 11.276a1.631 1.631 0 0 0 .003 1.61c.28.495.783.788 1.342.788h10.288c.565 0 1.072-.3 1.358-.806a1.61 1.61 0 0 0 .01-1.589zM8.746 5.096c.056.135.076.27.076.421-.02.422-.056.844-.076 1.265-.036.651-.075 1.302-.112 1.953-.02.213-.02.405-.02.614-.016.348-.279.614-.614.614a.61.61 0 0 1-.615-.594l-.168-3.025c-.02-.267-.036-.537-.056-.803 0-.442.243-.806.635-.92a.819.819 0 0 1 .95.475z"/></g></g></svg>