<svg xmlns="http://www.w3.org/2000/svg" width="24" height="24" viewBox="0 0 24 24"><g><g><path d="M23.553 11.955c0 6.474-5.283 11.74-11.777 11.74C5.282 23.695 0 18.429 0 11.955 0 5.482 5.282.216 11.776.216c6.494 0 11.777 5.266 11.777 11.74zm-2.506 0c0-5.095-4.159-9.242-9.27-9.242-5.113 0-9.272 4.147-9.272 9.242 0 5.097 4.16 9.242 9.271 9.242 5.112 0 9.271-4.145 9.271-9.242zm-2.164.604a.968.968 0 0 1-.97.967h-6.261a.968.968 0 0 1-.97-.967V5.25c0-.534.434-.966.97-.966.535 0 .97.432.97.967v6.343h5.292c.535 0 .97.433.97.966z"/></g></g></svg>