<svg xmlns="http://www.w3.org/2000/svg" width="24" height="29" viewBox="0 0 24 29"><g><g><path d="M17.234 12.025c0 2.884-2.449 5.23-5.458 5.23-3.009 0-5.457-2.346-5.457-5.23 0-2.884 2.448-5.23 5.457-5.23 3.01 0 5.458 2.346 5.458 5.23zm-2.298 0c0-1.67-1.418-3.028-3.16-3.028-1.742 0-3.16 1.358-3.16 3.028s1.418 3.028 3.16 3.028c1.742 0 3.16-1.359 3.16-3.028zm8.616 0v.312c0 3.148-1.882 6.816-5.596 10.902-2.692 2.962-5.346 5.027-5.458 5.114l-.722.56-.722-.56c-.112-.087-2.766-2.152-5.458-5.114C1.883 19.153 0 15.485 0 12.337v-.312C0 5.801 5.283.738 11.776.738c6.494 0 11.776 5.063 11.776 11.287zm-2.297.312v-.312c0-5.01-4.252-9.084-9.479-9.084-5.226 0-9.478 4.075-9.478 9.084v.312c0 5.32 7.15 11.757 9.478 13.713 2.328-1.955 9.479-8.393 9.479-13.713z"/></g></g></svg>