<svg xmlns="http://www.w3.org/2000/svg" width="27" height="27" viewBox="0 0 27 27"><defs><clipPath id="1uk3a"><path fill="#fff" d="M.011 26.993V.007H26.99v26.986zm21.36-7.22a23.08 23.08 0 0 0-.863-.869c-.144-.139-.288-.283-.432-.427l-1.254-1.255c-.534-.536-1.161-.818-1.804-.818-.647 0-1.27.282-1.804.818-.128.128-.262.257-.39.386a30.71 30.71 0 0 0-.905.915c-.53-.257-1.069-.612-1.696-1.106a17.731 17.731 0 0 1-2.138-2.048.921.921 0 0 0-1.305-.087.924.924 0 0 0-.087 1.307 18.922 18.922 0 0 0 2.369 2.274c.005 0 .005.005.01.005.91.72 1.676 1.194 2.493 1.528.02.01.04.016.061.02.196.068.781.264 1.357-.308l.036-.036c.35-.396.72-.756 1.11-1.142.134-.129.267-.262.401-.396.123-.124.313-.278.498-.278.186 0 .37.15.499.278l1.254 1.255c.149.15.303.299.447.443.288.278.555.545.812.818.005.01.015.015.02.02.196.196.407.505-.01.947l-1.567 1.57c-.334.334-.704.509-1.172.55-.796.067-1.644-.087-2.75-.499-1.84-.68-3.556-1.713-5.41-3.257a20.176 20.176 0 0 1-5.248-6.7c-.442-.93-.961-2.166-1.048-3.478-.047-.73.149-1.255.621-1.698.345-.288.648-.602.936-.9.185-.195.36-.376.545-.545l.005-.006c.365-.35.668-.355 1.007-.015l2.534 2.537.015.015c.108.103.236.263.242.437 0 .186-.14.366-.252.484l-1.573 1.575a.932.932 0 0 0 0 1.312.93.93 0 0 0 1.31 0l1.573-1.575c.53-.53.802-1.152.797-1.811-.005-.643-.283-1.25-.802-1.75l-2.528-2.53c-1.06-1.06-2.498-1.066-3.593-.016-.216.2-.41.406-.606.607-.272.283-.53.55-.807.782-.01.01-.02.02-.036.03-.9.819-1.31 1.889-1.233 3.186.108 1.626.709 3.077 1.223 4.157v.005a22.058 22.058 0 0 0 5.725 7.317c2.02 1.678 3.91 2.815 5.95 3.571.751.278 1.846.628 3.059.628a5.3 5.3 0 0 0 .488-.02h.005c.9-.078 1.68-.443 2.323-1.087l1.573-1.574.015-.015c1.013-1.055 1.007-2.506 0-3.53zm-1.12-5.222a.927.927 0 0 0 .755-1.07 9.149 9.149 0 0 0-2.554-4.94 9.059 9.059 0 0 0-4.923-2.552.926.926 0 0 0-.314 1.827 7.25 7.25 0 0 1 3.932 2.043 7.266 7.266 0 0 1 2.04 3.936.925.925 0 0 0 .91.772.78.78 0 0 0 .154-.016zm4.995-.231a.919.919 0 0 0 .766-1.065 14.902 14.902 0 0 0-4.184-8.079A14.87 14.87 0 0 0 13.76.988a.926.926 0 1 0-.314 1.827 13.051 13.051 0 0 1 7.072 3.668 13.043 13.043 0 0 1 3.664 7.08.925.925 0 0 0 .91.772.78.78 0 0 0 .154-.015z"/></clipPath></defs><g><g><path d="M21.371 23.304l-.015.015-1.573 1.574a3.643 3.643 0 0 1-2.323 1.086h-.005a5.3 5.3 0 0 1-.488.02c-1.213 0-2.308-.349-3.058-.627-2.04-.756-3.931-1.893-5.951-3.57a22.058 22.058 0 0 1-5.725-7.318v-.005c-.514-1.08-1.115-2.531-1.223-4.157-.077-1.297.334-2.367 1.233-3.185.016-.01.026-.02.036-.031.278-.232.535-.5.807-.782.195-.2.39-.407.606-.607 1.095-1.05 2.534-1.045 3.593.015l2.528 2.532c.52.499.797 1.106.802 1.749.005.659-.267 1.281-.797 1.811L8.246 13.4a.93.93 0 0 1-1.31 0 .932.932 0 0 1 0-1.312l1.572-1.575c.113-.118.252-.298.252-.484-.006-.175-.134-.334-.242-.437l-.015-.015-2.534-2.537c-.34-.34-.642-.334-1.007.015l-.005.006c-.186.17-.36.35-.545.545-.288.298-.591.612-.936.9-.472.443-.668.968-.621 1.698.087 1.312.606 2.547 1.048 3.479a20.176 20.176 0 0 0 5.247 6.7c1.855 1.543 3.572 2.577 5.412 3.256 1.105.412 1.953.566 2.75.5a1.795 1.795 0 0 0 1.17-.551l1.568-1.57c.417-.442.206-.751.01-.947-.005-.005-.015-.01-.02-.02-.257-.273-.524-.54-.812-.818-.144-.144-.298-.293-.447-.443l-1.254-1.255c-.129-.129-.313-.278-.499-.278-.185 0-.375.154-.498.278-.134.134-.267.267-.4.396-.392.386-.762.746-1.111 1.142l-.036.036c-.576.572-1.161.376-1.357.309a.273.273 0 0 1-.061-.02c-.817-.335-1.583-.808-2.493-1.529-.005 0-.005-.005-.01-.005a18.922 18.922 0 0 1-2.37-2.274.924.924 0 0 1 .088-1.307.921.921 0 0 1 1.305.087c.622.71 1.321 1.38 2.138 2.048.627.494 1.167.85 1.696 1.106.298-.319.607-.622.905-.915.128-.129.262-.258.39-.386.535-.536 1.157-.818 1.804-.818.643 0 1.27.282 1.804.818l1.254 1.255c.144.144.288.288.432.427.288.278.58.566.863.87 1.007 1.024 1.012 2.475 0 3.53zm-1.12-8.753a.78.78 0 0 1-.154.016.925.925 0 0 1-.91-.772 7.266 7.266 0 0 0-2.04-3.936 7.25 7.25 0 0 0-3.932-2.043.927.927 0 0 1 .314-1.827 9.059 9.059 0 0 1 4.923 2.553 9.149 9.149 0 0 1 2.554 4.939.927.927 0 0 1-.755 1.07zm4.995-.231a.78.78 0 0 1-.154.015.925.925 0 0 1-.91-.772 13.043 13.043 0 0 0-3.664-7.08 13.051 13.051 0 0 0-7.072-3.668.927.927 0 0 1 .314-1.827 14.87 14.87 0 0 1 8.068 4.188 14.902 14.902 0 0 1 4.184 8.079.919.919 0 0 1-.766 1.065z"/><path fill="none" stroke="#000" stroke-linecap="round" stroke-linejoin="round" stroke-miterlimit="20" stroke-opacity=".14" stroke-width="2" d="M21.371 23.304l-.015.015-1.573 1.574a3.643 3.643 0 0 1-2.323 1.086h-.005a5.3 5.3 0 0 1-.488.02c-1.213 0-2.308-.349-3.058-.627-2.04-.756-3.931-1.893-5.951-3.57a22.058 22.058 0 0 1-5.725-7.318v-.005c-.514-1.08-1.115-2.531-1.223-4.157-.077-1.297.334-2.367 1.233-3.185.016-.01.026-.02.036-.031.278-.232.535-.5.807-.782.195-.2.39-.407.606-.607 1.095-1.05 2.534-1.045 3.593.015l2.528 2.532c.52.499.797 1.106.802 1.749.005.659-.267 1.281-.797 1.811L8.246 13.4a.93.93 0 0 1-1.31 0 .932.932 0 0 1 0-1.312l1.572-1.575c.113-.118.252-.298.252-.484-.006-.175-.134-.334-.242-.437l-.015-.015-2.534-2.537c-.34-.34-.642-.334-1.007.015l-.005.006c-.186.17-.36.35-.545.545-.288.298-.591.612-.936.9-.472.443-.668.968-.621 1.698.087 1.312.606 2.547 1.048 3.479a20.176 20.176 0 0 0 5.247 6.7c1.855 1.543 3.572 2.577 5.412 3.256 1.105.412 1.953.566 2.75.5a1.795 1.795 0 0 0 1.17-.551l1.568-1.57c.417-.442.206-.751.01-.947-.005-.005-.015-.01-.02-.02-.257-.273-.524-.54-.812-.818-.144-.144-.298-.293-.447-.443l-1.254-1.255c-.129-.129-.313-.278-.499-.278-.185 0-.375.154-.498.278-.134.134-.267.267-.4.396-.392.386-.762.746-1.111 1.142l-.036.036c-.576.572-1.161.376-1.357.309a.273.273 0 0 1-.061-.02c-.817-.335-1.583-.808-2.493-1.529-.005 0-.005-.005-.01-.005a18.922 18.922 0 0 1-2.37-2.274.924.924 0 0 1 .088-1.307.921.921 0 0 1 1.305.087c.622.71 1.321 1.38 2.138 2.048.627.494 1.167.85 1.696 1.106.298-.319.607-.622.905-.915.128-.129.262-.258.39-.386.535-.536 1.157-.818 1.804-.818.643 0 1.27.282 1.804.818l1.254 1.255c.144.144.288.288.432.427.288.278.58.566.863.87 1.007 1.024 1.012 2.475 0 3.53zm-1.12-8.753a.78.78 0 0 1-.154.016.925.925 0 0 1-.91-.772 7.266 7.266 0 0 0-2.04-3.936 7.25 7.25 0 0 0-3.932-2.043.927.927 0 0 1 .314-1.827 9.059 9.059 0 0 1 4.923 2.553 9.149 9.149 0 0 1 2.554 4.939.927.927 0 0 1-.755 1.07zm4.995-.231a.78.78 0 0 1-.154.015.925.925 0 0 1-.91-.772 13.043 13.043 0 0 0-3.664-7.08 13.051 13.051 0 0 0-7.072-3.668.927.927 0 0 1 .314-1.827 14.87 14.87 0 0 1 8.068 4.188 14.902 14.902 0 0 1 4.184 8.079.919.919 0 0 1-.766 1.065z" clip-path="url(&quot;#1uk3a&quot;)"/></g></g></svg>